<svg width="472" height="90" viewBox="0 0 472 90" fill="none" xmlns="http://www.w3.org/2000/svg">
<mask id="mask0_2729_1045" style="mask-type:luminance" maskUnits="userSpaceOnUse" x="-4" y="0" width="480" height="90">
<path d="M-4 0H476V90H-4V0Z" fill="white"/>
</mask>
<g mask="url(#mask0_2729_1045)">
<path d="M15.5401 44.7381H18.8201L-30.0559 202.64H-33.3359L15.5401 44.7381ZM51.4341 44.7381H57.9781L9.07506 202.64H2.53106L51.4341 44.7381ZM90.6131 44.7401H103.591L54.5881 202.65H41.6091L90.6131 44.7401ZM159.071 -113.162H178.628L129.666 44.7411H110.109L159.071 -113.162ZM132.988 44.7381H152.546L103.584 202.64H84.0271L132.988 44.7381ZM44.8961 -113.162H48.1761L-0.700939 44.7411H-3.98094L44.8961 -113.162ZM80.7661 -113.162H87.3101L38.4071 44.7411H31.8631L80.7661 -113.162ZM119.976 -113.172H132.954L83.9511 44.7401H70.9731L119.976 -113.172ZM204.69 -113.162H230.773L181.841 44.7411H155.758L204.69 -113.162ZM181.885 44.7381H207.968L159.036 202.64H132.953L181.885 44.7381Z" fill="#1E1E1E"/>
<path d="M256.826 -113.162H289.459L240.523 44.7414H207.891L256.826 -113.162ZM488.342 -113.162H520.974L472.039 44.7414H439.406L488.342 -113.162Z" fill="#1E1E1E"/>
<path d="M237.295 44.7383H269.928L220.992 202.64H188.359L237.295 44.7383ZM470.432 44.7383H503.064L454.129 202.64H421.496L470.432 44.7383Z" fill="#1E1E1E"/>
<path d="M315.424 -113.162H354.673L305.885 44.7414H266.637L315.424 -113.162ZM426.264 -113.162H465.513L416.725 44.7414H377.477L426.264 -113.162Z" fill="#1E1E1E"/>
<path d="M292.694 44.7383H331.943L283.155 202.64H243.906L292.694 44.7383ZM403.417 44.7383H442.665L393.878 202.64H354.629L403.417 44.7383Z" fill="#1E1E1E"/>
<path d="M367.725 -113.277H419.732L370.937 44.7411H318.93L367.725 -113.277Z" fill="#1E1E1E"/>
<path d="M338.335 44.7402H390.342L341.546 202.757H289.539L338.335 44.7402Z" fill="#1E1E1E"/>
</g>
</svg>
