<svg width="439" height="160" viewBox="0 0 439 160" fill="none" xmlns="http://www.w3.org/2000/svg">
<path d="M54.5797 0.181641H0V155.202L35.2357 84.5245H50.484L12.9256 159.818H58.846L96.4054 84.5225H126.975L89.3016 159.818H127.483L165.156 84.5225H195.58L237.776 0.181641H207.26L165.065 84.5195H130.737L172.934 0.181641H134.754L92.5562 84.5195H65.9348L108.004 0.181641H62.0836L20.0124 84.5215H12.5325L54.5797 0.181641ZM272.113 0.181641L229.892 84.5225H252.774L294.995 0.181641H272.113ZM329.437 0.181641L287.182 84.5225H302.367L344.622 0.181641H329.437ZM382.716 0.181641L340.544 84.5245H348.2L390.373 0.181641H382.716ZM428.508 0.181641L386.36 84.5225H390.197L432.345 0.181641H428.508ZM375.408 159.818L413.037 84.5195H409.2L371.571 159.818H375.408ZM333.444 159.818L371.094 84.5195H363.438L325.789 159.818H333.444ZM287.614 159.818L325.338 84.5195H310.153L272.429 159.818H287.614ZM241.864 159.818L279.558 84.5195H256.676L218.982 159.818H241.864ZM188.464 159.818L226.135 84.5195H195.618L157.946 159.818H188.464Z" fill="#1E1E1E"/>
</svg>
