<svg width="231" height="31" viewBox="0 0 231 31" fill="none" xmlns="http://www.w3.org/2000/svg">
<path d="M14.335 12.6679H12.275L3.52901 30.1699H5.58901L14.335 12.6679ZM30.181 30.1699H26.071L34.821 12.6679H38.931L30.181 30.1699ZM58.817 30.1699H50.664L59.432 12.6679H67.585L58.817 30.1699ZM89.572 30.1699H77.287L86.049 12.6679H98.333L89.572 30.1699ZM124.394 30.1699H108.01L116.766 12.6679H133.15L124.394 30.1699ZM163.314 30.1699H142.816L151.573 12.6679H172.071L163.314 30.1699ZM202.295 30.1699H177.64L186.37 12.6679H211.025L202.295 30.1699ZM231 12.6679V30.1699H206.315L215.04 12.6679H231ZM209.082 0.169922H231V12.6629H202.854L209.082 0.169922ZM176.239 0.169922H200.893L194.66 12.6669H170.006L176.239 0.169922ZM139.355 0.169922H159.853L153.601 12.6669H133.103L139.355 0.169922ZM106.606 0.169922H122.99L116.738 12.6669H100.354L106.606 0.169922ZM77.934 0.169922H90.22L83.965 12.6669H71.679L77.934 0.169922ZM53.358 0.169922H61.51L55.25 12.6659H47.098L53.358 0.169922ZM28.778 0.169922H32.888L26.64 12.6669H22.53L28.778 0.169922ZM8.31501 0.169922H6.25501L0.0100098 12.6669H2.07001L8.31501 0.169922Z" fill="#1E1E1E"/>
</svg>
